# AST/ASF file generated using VICON BodyLanguage
# -----------------------------------------------
:version 1.10
:name VICON
:units
  mass 1.0
  length 0.45
  angle deg
:documentation
   .ast/.asf automatically generated from VICON data using
   VICON BodyBuilder and BodyLanguage model FoxedUp or BRILLIANT.MOD
:root
   order TX TY TZ RX RY RZ
   axis XYZ
   position 0 0 0  
   orientation 0 0 0 
:bonedata
  begin
     id 1 
     name lhipjoint
     direction 0.624716 -0.669793 0.401383 
     length 2.38238 
     axis 0 0 0  XYZ
  end
  begin
     id 2 
     name lfemur
     direction 0.34202 -0.939693 0  
     length 6.4574  
     axis 0 0 20  XYZ
    dof rx ry rz
    limits (-160.0 20.0)
           (-70.0 70.0)
           (-60.0 70.0)
  end
  begin
     id 3 
     name ltibia
     direction 0.34202 -0.939693 0   
     length 7.68739   
     axis 0 0 20   XYZ
    dof rx
    limits (-10.0 170.0)
  end
  begin
     id 4 
     name lfoot
     direction 0.0681309 -0.187188 0.979959   
     length 2.46615   
     axis -90 7.62852e-016 20   XYZ
    dof rx rz
    limits (-45.0 90.0)
           (-70.0 20.0)
  end
  begin
     id 5 
     name ltoes
     direction 1.53566e-011 -4.21819e-011 1   
     length 1.2376   
     axis -90 7.62852e-016 20   XYZ
    dof rx
    limits (-90.0 20.0)
  end
  begin
     id 6 
     name rhipjoint
     direction -0.644473 -0.655875 0.393043   
     length 2.43293  
     axis 0 0 0  XYZ 
  end
  begin
     id 7 
     name rfemur
     direction -0.34202 -0.939693 0   
     length 6.7025   
     axis 0 0 -20   XYZ
    dof rx ry rz
    limits (-160.0 20.0)
           (-70.0 70.0)
           (-70.0 60.0)
  end
  begin
     id 8 
     name rtibia
     direction -0.34202 -0.939693 0   
     length 7.80547   
     axis 0 0 -20   XYZ
    dof rx
    limits (-10.0 170.0)
 end
 begin
     id 9 
     name rfoot
     direction -0.0756734 -0.207911 0.975216   
     length 2.40315  
     axis -90 -7.62852e-016 -20   XYZ
    dof rx rz
    limits (-45.0 90.0)
           (-20.0 70.0)
  end
  begin
     id 10 
     name rtoes
     direction -1.5353e-011 -4.21879e-011 1   
     length 1.20477   
     axis -90 -7.62852e-016 -20   XYZ
    dof rx
    limits (-90.0 20.0)
  end
  begin
     id 11 
     name lowerback
     direction 0.0160353 0.987463 -0.157037   
     length 2.18572   
     axis 0 0 0   XYZ
    dof rx ry rz
    limits (-20.0 45.0)
           (-30.0 30.0)
           (-30.0 30.0)
  end
  begin
     id 12 
     name upperback
     direction -0.00499661 0.999756 0.0215076   
     length 2.18016   
     axis 0 0 0   XYZ
    dof rx ry rz
    limits (-20.0 45.0)
           (-30.0 30.0)
           (-30.0 30.0)
  end
  begin
     id 13 
     name thorax
     direction -0.00921346 0.995333 0.0960619   
     length 2.24923   
     axis 0 0 0   XYZ
    dof rx ry rz
    limits (-20.0 45.0)
           (-30.0 30.0)
           (-30.0 30.0)
  end
  begin
     id 14 
     name lowerneck
     direction 0.0274184 0.991181 0.12965   
     length 1.70911   
     axis 0 0 0   XYZ
    dof rx ry rz
    limits (-20.0 45.0)
           (-30.0 30.0)
           (-30.0 30.0)
  end
  begin
     id 15 
     name upperneck
     direction 0.0015627 0.999959 -0.00893559   
     length 1.69312   
     axis 0 0 0   XYZ
    dof rx ry rz
    limits (-20.0 45.0)
           (-30.0 30.0)
           (-30.0 30.0)
  end
  begin
     id 16
     name head
     direction -0.00230242 0.999856 -0.0168327  
     length 1.80241  
     axis 0 0 0   XYZ
    dof rx ry rz
    limits (-20.0 45.0)
           (-30.0 30.0)
           (-30.0 30.0)
  end
  begin
     id 17 
     name lclavicle
     direction 0.955523 0.290741 -0.0494489  
     length 3.84275  
     axis 0 0 0   XYZ
    dof ry rz
    limits (-20.0 10.0)
           (0.0 20.0)
  end
  begin
     id 18 
     name lhumerus
     direction 1 -4.48967e-011 -3.18382e-028   
     length 5.17714   
     axis 180 -30 -90   XYZ
    dof rx ry rz
    limits (-60.0 90.0)
           (-90.0 90.0)
           (-90.0 90.0)
  end
  begin
     id 19
     name lradius
     direction 1 -4.48968e-011 -2.22911e-027   
     length 3.43679   
     axis 180 -30 -90   XYZ
    dof rx
    limits (-10.0 170.0)
  end
  begin
     id 20
     name lwrist
     direction 1 -4.48951e-011 -6.32245e-027   
     length 1.7184   
     axis 3.57107e-015 90 90   XYZ
    dof ry
    limits (-180.0 0.0)
 end
  begin
     id 21 
     name lhand
     direction 1 -4.48924e-011 -1.26431e-026   
     length 0.573117   
     axis 8.06912e-015 90 90   XYZ
    dof rx rz
    limits (-90.0 90.0)
           (-45.0 45.0)
  end
  begin
     id 22 
     name lfingers
     direction 1 -4.49001e-011 -2.52965e-026   
     length 0.462062   
     axis 1.61381e-014 90 90   XYZ
    dof rx
    limits (0.0 90.0)
  end
  begin
     id 23
     name lthumb
     direction 0.707107 -6.35008e-011 0.707107   
     length 0.663431   
     axis -90 45 -1.62303e-014   XYZ
    dof rx rz
    limits (-45.0 45.0)
           (-45.0 45.0)
  end
  begin
     id 24 
     name rclavicle
     direction -0.963917 0.256881 -0.0698287   
     length 3.73057  
     axis 0 0 0   XYZ 
    dof ry rz
    limits (-10.0 20.0)
           (-20.0 0.0)
  end
  begin
     id 25 
     name rhumerus
     direction -1 -4.48962e-011 -2.73982e-027  
     length 5.23908   
     axis 180 30 90   XYZ
    dof rx ry rz
    limits (-90.0 60.0)
           (-90.0 90.0)
           (-90.0 90.0)
  end
  begin
     id 26 
     name rradius
     direction -1 -4.48968e-011 -4.33218e-027   
     length 3.46485   
     axis 180 30 90   XYZ
    dof rx
    limits (-10.0 170.0)
  end
  begin
     id 27 
     name rwrist
     direction -1 -4.48989e-011 -6.32372e-027   
     length 1.73243   
     axis 3.57107e-015 -90 -90   XYZ
    dof ry
    limits (-180.0 0.0)
  end
  begin
     id 28
     name rhand
     direction -1 -4.48948e-011 -1.26448e-026   
     length 0.608752   
     axis 8.06912e-015 -90 -90   XYZ
    dof rx rz
    limits (-90.0 90.0)
           (-45.0 45.0)
  end
  begin
     id 29
     name rfingers
     direction -1 -4.48962e-011 -2.52913e-026   
     length 0.490792   
     axis 1.61381e-014 -90 -90   XYZ
    dof rx
    limits (0.0 90.0)
  end
  begin
     id 30
     name rthumb
     direction -0.707107 -6.34878e-011 0.707107   
     length 0.704682   
     axis -90 -45 1.62303e-014   XYZ
    dof rx rz
    limits (-45.0 45.0)
           (-45.0 45.0)
  end
:hierarchy
  begin
    root lhipjoint rhipjoint lowerback
    lhipjoint lfemur
    lfemur ltibia
    ltibia lfoot
    lfoot ltoes
    rhipjoint rfemur
    rfemur rtibia
    rtibia rfoot
    rfoot rtoes
    lowerback upperback
    upperback thorax
    thorax lowerneck lclavicle rclavicle
    lowerneck upperneck
    upperneck head
    lclavicle lhumerus
    lhumerus lradius
    lradius lwrist
    lwrist lhand lthumb
    lhand lfingers
    rclavicle rhumerus
    rhumerus rradius
    rradius rwrist
    rwrist rhand rthumb
    rhand rfingers
  end

#!OML:ASF G:\JayActor3\Patient Classification 1\Patient 1\Session 6\male.ASF
:FULLY-SPECIFIED
:DEGREES
211
root 51.2252 15.6392 -27.493 1.50349 -56.9583 -6.41263
lowerback 5.84407 -0.556493 1.636
upperback 4.11261 -0.732014 0.355186
thorax 0.941183 -0.365302 -0.516964
lowerneck -3.92629 -0.289002 2.98611
upperneck 8.86511 -0.644285 -0.0727646
head 3.54917 -0.239873 -0.575741
rclavicle -2.48481e-016 -4.77083e-015
rhumerus -32.9113 -12.4204 -81.388
rradius 40.7679
rwrist -0.491615
rhand -9.33383 -5.43683
rfingers 7.12502
rthumb 16.6251 -34.7448
lclavicle -2.48481e-016 -4.77083e-015
lhumerus -29.7588 3.61793 80.5453
lradius 37.5243
lwrist 24.4789
lhand -13.0914 9.94836
lfingers 7.12502
lthumb 13.0051 39.523
rfemur -10.5197 -2.07514 22.7014
rtibia 37.917
rfoot -23.287 -10.1122
rtoes 1.98771
lfemur -4.6395 12.0519 -14.2157
ltibia 29.2223
lfoot -19.3997 7.41168
ltoes -1.93162
212
root 51.2429 15.6337 -27.495 1.74659 -56.8802 -6.64738
lowerback 6.03188 -0.556382 1.70746
upperback 4.13921 -0.726445 0.375585
thorax 0.864176 -0.362455 -0.534516
lowerneck -3.8677 -0.317691 3.01969
upperneck 8.83534 -0.690553 0.00913031
head 3.52673 -0.258925 -0.556144
rclavicle 1.82882e-014 -2.78299e-015
rhumerus -33.0108 -12.0637 -81.4839
rradius 41.6118
rwrist -0.573845
rhand -9.18873 -5.57188
rfingers 7.12502
rthumb 16.7648 -34.8681
lclavicle 1.82882e-014 -2.78299e-015
lhumerus -29.8442 3.33603 80.6325
lradius 38.2352
lwrist 24.5571
lhand -12.9729 9.95274
lfingers 7.12502
lthumb 13.1193 39.5201
rfemur -10.7228 -2.24785 22.7874
rtibia 38.0831
rfoot -23.2234 -10.0095
rtoes 1.87239
lfemur -4.98216 12.2337 -14.082
ltibia 29.6019
lfoot -19.451 7.16454
ltoes -1.95449
213
root 51.2613 15.6279 -27.4966 1.99051 -56.8195 -6.88266
lowerback 6.20609 -0.549447 1.75956
upperback 4.17847 -0.713193 0.403835
thorax 0.808326 -0.35616 -0.533822
lowerneck -3.80008 -0.34409 3.05231
upperneck 8.7785 -0.731844 0.0823072
head 3.49323 -0.276173 -0.53883
rclavicle -1.22352e-013 1.23246e-014
rhumerus -33.0764 -11.7091 -81.567
rradius 42.4421
rwrist -0.651267
rhand -9.05092 -5.70401
rfingers 7.12502
rthumb 16.8974 -34.9889
lclavicle -1.22352e-013 1.23246e-014
lhumerus -29.9177 3.05768 80.7268
lradius 38.9648
lwrist 24.6315
lhand -12.8587 9.94793
lfingers 7.12502
lthumb 13.2294 39.5081
rfemur -10.9443 -2.42475 22.8707
rtibia 38.2689
rfoot -23.1431 -9.90453
rtoes 1.73129
lfemur -5.31268 12.405 -13.954
ltibia 29.9644
lfoot -19.51 6.93832
ltoes -1.96025
214
root 51.2806 15.6218 -27.4979 2.2166 -56.7796 -7.10357
lowerback 6.39258 -0.549742 1.77969
upperback 4.22325 -0.711014 0.445918
thorax 0.75167 -0.356307 -0.500335
lowerneck -3.74097 -0.353837 3.04923
upperneck 8.72027 -0.747957 0.152173
head 3.46137 -0.282268 -0.515361
rclavicle -6.57977e-014 1.27222e-014
rhumerus -33.1078 -11.3098 -81.6383
rradius 43.2455
rwrist -0.717333
rhand -8.95307 -5.79211
rfingers 7.12502
rthumb 16.9916 -35.0689
lclavicle -6.57977e-014 1.27222e-014
lhumerus -29.9819 2.85573 80.8279
lradius 39.6935
lwrist 24.6776
lhand -12.795 9.9809
lfingers 7.12502
lthumb 13.2908 39.5371
rfemur -11.1797 -2.60514 22.9401
rtibia 38.4791
rfoot -23.045 -9.78735
rtoes 1.56588
lfemur -5.61991 12.5621 -13.8415
ltibia 30.3038
lfoot -19.5791 6.7362
ltoes -1.92585
215
root 51.3006 15.6157 -27.499 2.42709 -56.7566 -7.30706
lowerback 6.57142 -0.540846 1.78255
upperback 4.27339 -0.697742 0.481178
thorax 0.705174 -0.351097 -0.46494
lowerneck -3.65649 -0.362315 3.0592
upperneck 8.63583 -0.761541 0.219016
head 3.41561 -0.287188 -0.494812
rclavicle -2.22639e-014 1.19271e-015
rhumerus -33.1193 -10.9394 -81.7025
rradius 44.0274
rwrist -0.776833
rhand -8.91163 -5.8382
rfingers 7.12502
rthumb 17.0315 -35.1116
lclavicle -2.22639e-014 1.19271e-015
lhumerus -30.0284 2.64805 80.9258
lradius 40.4178
lwrist 24.7116
lhand -12.7651 10.0163
lfingers 7.12502
lthumb 13.3196 39.5706
rfemur -11.4345 -2.78831 22.9957
rtibia 38.7164
rfoot -22.9329 -9.66693
rtoes 1.37587
lfemur -5.90758 12.7022 -13.7476
ltibia 30.6166
lfoot -19.6542 6.56956
ltoes -1.88916
216
root 51.321 15.6094 -27.4998 2.61456 -56.7501 -7.48344
lowerback 6.73335 -0.525867 1.74421
upperback 4.33594 -0.679392 0.523085
thorax 0.681463 -0.344114 -0.400223
lowerneck -3.55914 -0.367217 3.05882
upperneck 8.52936 -0.76819 0.282399
head 3.35995 -0.28944 -0.473166
rclavicle 6.82825e-014 -1.27222e-014
rhumerus -33.0974 -10.5783 -81.7465
rradius 44.8206
rwrist -0.903195
rhand -8.84554 -5.96738
rfingers 7.12502
rthumb 17.0951 -35.2353
lclavicle 6.82825e-014 -1.27222e-014
lhumerus -30.0489 2.46636 81.035
lradius 41.1344
lwrist 24.7269
lhand -12.7819 10.0656
lfingers 7.12502
lthumb 13.3034 39.621
rfemur -11.709 -2.97373 23.0316
rtibia 38.9828
rfoot -22.8098 -9.54427
rtoes 1.13391
lfemur -6.17537 12.8272 -13.6783
ltibia 30.9012
lfoot -19.7286 6.44192
ltoes -1.86735
217
root 51.3419 15.6032 -27.5004 2.77831 -56.7553 -7.6312
lowerback 6.89234 -0.512478 1.67651
upperback 4.39979 -0.664994 0.563523
thorax 0.660886 -0.339681 -0.320396
lowerneck -3.44543 -0.365941 3.04323
upperneck 8.41386 -0.765093 0.350758
head 3.29834 -0.287387 -0.446791
rclavicle -6.85807e-015 -7.95139e-015
rhumerus -33.0632 -10.2143 -81.7858
rradius 45.6235
rwrist -1.07248
rhand -8.74165 -6.17205
rfingers 7.12502
rthumb 17.1951 -35.4312
lclavicle -6.85807e-015 -7.95139e-015
lhumerus -30.0686 2.31063 81.1381
lradius 41.8503
lwrist 24.7304
lhand -12.8259 10.1341
lfingers 7.12502
lthumb 13.261 39.6923
rfemur -12.0036 -3.16443 23.0472
rtibia 39.2784
rfoot -22.6712 -9.41752
rtoes 0.851833
lfemur -6.42621 12.94 -13.6336
ltibia 31.1584
lfoot -19.798 6.34615
ltoes -1.86943
218
root 51.3631 15.5972 -27.5008 2.91147 -56.77 -7.74399
lowerback 7.06133 -0.491227 1.59821
upperback 4.45439 -0.640354 0.580787
thorax 0.625235 -0.330099 -0.258983
lowerneck -3.30652 -0.371922 3.05142
upperneck 8.29777 -0.773149 0.427415
head 3.23176 -0.290077 -0.42223
rclavicle 1.16786e-014 -7.95139e-015
rhumerus -33.0438 -9.89768 -81.8302
rradius 46.4425
rwrist -1.27867
rhand -8.62028 -6.4337
rfingers 7.12502
rthumb 17.3119 -35.6827
lclavicle 1.16786e-014 -7.95139e-015
lhumerus -30.1011 2.11459 81.2183
lradius 42.5703
lwrist 24.7324
lhand -12.8603 10.1939
lfingers 7.12502
lthumb 13.2279 39.7542
rfemur -12.316 -3.36047 23.0398
rtibia 39.6029
rfoot -22.5209 -9.29506
rtoes 0.493281
lfemur -6.6612 13.0376 -13.6168
ltibia 31.3909
lfoot -19.8586 6.28004
ltoes -1.89085
219
root 51.3847 15.5914 -27.5012 3.01339 -56.7931 -7.82084
lowerback 7.23823 -0.465173 1.50028
upperback 4.50061 -0.610259 0.58393
thorax 0.576636 -0.318023 -0.201403
lowerneck -3.14856 -0.386773 3.06732
upperneck 8.193 -0.793592 0.510075
head 3.16551 -0.298612 -0.397539
rclavicle 1.43622e-013 -1.27222e-014
rhumerus -33.0347 -9.61277 -81.8751
rradius 47.2627
rwrist -1.47637
rhand -8.48561 -6.73485
rfingers 7.12502
rthumb 17.4415 -35.9724
lclavicle 1.43622e-013 -1.27222e-014
lhumerus -30.1505 1.89584 81.2847
lradius 43.2979
lwrist 24.7347
lhand -12.8794 10.2536
lfingers 7.12502
lthumb 13.2094 39.8151
rfemur -12.6449 -3.5652 23.0078
rtibia 39.9555
rfoot -22.3608 -9.16001
rtoes 0.121817
lfemur -6.88342 13.1257 -13.6263
ltibia 31.6019
lfoot -19.9105 6.22655
ltoes -1.90414
220
root 51.4067 15.586 -27.5016 3.08874 -56.8219 -7.8669
lowerback 7.41376 -0.441363 1.37581
upperback 4.55324 -0.585386 0.585428
thorax 0.53551 -0.309061 -0.130436
lowerneck -3.01276 -0.399529 3.06563
upperneck 8.10764 -0.811338 0.595885
head 3.1104 -0.306059 -0.368936
rclavicle 1.39149e-015 -1.19271e-015
rhumerus -33.0085 -9.3303 -81.9191
rradius 48.0794
rwrist -1.62652
rhand -8.35493 -6.99762
rfingers 7.12502
rthumb 17.5673 -36.2239
lclavicle 1.39149e-015 -1.19271e-015
lhumerus -30.1879 1.69538 81.3492
lradius 44.0277
lwrist 24.7236
lhand -12.8743 10.3261
lfingers 7.12502
lthumb 13.2144 39.8873
rfemur -12.9912 -3.78716 22.9537
rtibia 40.3359
rfoot -22.1832 -9.01369
rtoes -0.292165
lfemur -7.09812 13.212 -13.6576
ltibia 31.7969
lfoot -19.9504 6.17499
ltoes -1.91072
221
root 51.4292 15.5811 -27.502 3.1463 -56.8574 -7.88473
lowerback 7.59693 -0.405705 1.25342
upperback 4.59079 -0.544424 0.560879
thorax 0.474465 -0.291633 -0.0884895
lowerneck -2.85398 -0.424648 3.09815
upperneck 8.0243 -0.846825 0.681068
head 3.05156 -0.32158 -0.347024
rclavicle -3.27498e-014 -7.15625e-015
rhumerus -33.0082 -9.11505 -81.9728
rradius 48.8819
rwrist -1.67406
rhand -8.26421 -7.15266
rfingers 7.12502
rthumb 17.6546 -36.3711
lclavicle -3.27498e-014 -7.15625e-015
lhumerus -30.233 1.4356 81.3931
lradius 44.7581
lwrist 24.7044
lhand -12.8274 10.3917
lfingers 7.12502
lthumb 13.2596 39.9499
rfemur -13.3627 -4.02981 22.8782
rtibia 40.7447
rfoot -21.9886 -8.85372
rtoes -0.738461
lfemur -7.31644 13.3009 -13.7102
ltibia 31.981
lfoot -19.9781 6.1269
ltoes -1.92018
